<svg width="22" height="21" viewBox="0 0 22 21" fill="none" xmlns="http://www.w3.org/2000/svg">
<path d="M3.91669 11.25V18.75C3.91669 18.971 4.00448 19.183 4.16076 19.3393C4.31705 19.4955 4.52901 19.5833 4.75002 19.5833H8.50002C8.61053 19.5833 8.71651 19.5394 8.79465 19.4613C8.87279 19.3832 8.91669 19.2772 8.91669 19.1667V15.8333C8.91669 15.2808 9.13618 14.7509 9.52688 14.3602C9.91758 13.9695 10.4475 13.75 11 13.75C11.5526 13.75 12.0825 13.9695 12.4732 14.3602C12.8639 14.7509 13.0834 15.2808 13.0834 15.8333V19.1667C13.0834 19.2772 13.1273 19.3832 13.2054 19.4613C13.2835 19.5394 13.3895 19.5833 13.5 19.5833H17.25C17.471 19.5833 17.683 19.4955 17.8393 19.3393C17.9956 19.183 18.0834 18.971 18.0834 18.75V11.6667" stroke="#737A91" stroke-linecap="round" stroke-linejoin="round"/>
<path d="M1.41669 10.8333L11 1.25L20.5834 10.8333" stroke="#737A91" stroke-linecap="round" stroke-linejoin="round"/>
</svg>
