<svg width="20" height="20" viewBox="0 0 20 20" fill="none" xmlns="http://www.w3.org/2000/svg">
<path fill-rule="evenodd" clip-rule="evenodd" d="M11.1257 19.0322C11.1257 19.5667 11.559 20 12.0935 20H17.4439C18.674 20 19.6713 18.989 19.6713 17.7419V2.25806C19.6713 1.01097 18.674 -1.46686e-08 17.4439 0L12.0935 3.85571e-08C11.559 4.24088e-08 11.1257 0.433274 11.1257 0.967743C11.1257 1.50221 11.559 1.93549 12.0935 1.93549H17.4439C17.6196 1.93549 17.7621 2.07991 17.7621 2.25806V17.7419C17.7621 17.9201 17.6196 18.0645 17.4439 18.0645H12.0935C11.559 18.0645 11.1257 18.4977 11.1257 19.0322ZM6.24672 5.4861L3.0987 9.03226H13.66V10.9677H3.0987L6.24672 14.5139L4.82771 15.8086L0.245895 10.6474C-0.0819651 10.2781 -0.0819649 9.72194 0.245895 9.35261L4.82771 4.19133L6.24672 5.4861Z" fill="#262626"/>
</svg>
